<?xml version="1.0" encoding="UTF-8"?>
<svg version="1.1" xmlns="http://www.w3.org/2000/svg" width="122" height="75">
<path d="M0 0 C2.475 0.495 2.475 0.495 5 1 C6.13432836 5.53731343 6.13432836 5.53731343 5.4375 7.9375 C4.76749201 11.0961091 5.65921086 13.12688041 7 16 C9.03243548 16.96877057 9.03243548 16.96877057 11 17 C10.70179167 20.57849992 10.25754642 21.76226484 7.5625 24.25 C-1.77135491 30.62433994 -18.44630128 26.57307053 -29.20214844 25.40087891 C-31.78728405 25.12096292 -34.37383502 24.85869985 -36.9609375 24.59765625 C-38.61469335 24.42291307 -40.26834394 24.24717016 -41.921875 24.0703125 C-42.69053894 23.99313995 -43.45920288 23.91596741 -44.25115967 23.8364563 C-47.87327648 23.4299068 -49.91231776 23.05845483 -53 21 C-53.66 21 -54.32 21 -55 21 C-53.84826645 18.53199953 -52.95216435 16.95216435 -51 15 C-48.7578125 14.98046875 -48.7578125 14.98046875 -46.125 15.1875 C-43.46411395 15.32128359 -43.46411395 15.32128359 -41 15 C-38.32181017 12.70142894 -38.32181017 12.70142894 -37 10 C-36.01 10.33 -35.02 10.66 -34 11 C-31.85744207 10.61067144 -31.85744207 10.61067144 -30 10 C-30.875 15.875 -30.875 15.875 -32 17 C-30.35 16.67 -28.7 16.34 -27 16 C-26.85304688 15.37351562 -26.70609375 14.74703125 -26.5546875 14.1015625 C-25.86616966 11.59282507 -25.16286191 9.3299834 -24 7 C-20.8125 5.4375 -20.8125 5.4375 -18 5 C-18.165 5.680625 -18.33 6.36125 -18.5 7.0625 C-19.07089059 10.4164822 -19.06659023 13.60389805 -19 17 C-18.01 17 -17.02 17 -16 17 C-14.97080834 14.46800637 -13.97809066 11.93777012 -13.0703125 9.359375 C-12.75835937 8.49828125 -12.44640625 7.6371875 -12.125 6.75 C-11.81820312 5.87859375 -11.51140625 5.0071875 -11.1953125 4.109375 C-10.80085938 3.41328125 -10.40640625 2.7171875 -10 2 C-8.68 1.67 -7.36 1.34 -6 1 C-6.33 5.62 -6.66 10.24 -7 15 C-6.34 15 -5.68 15 -5 15 C-3.08460953 10.03739743 -1.39038565 5.13373162 0 0 Z " fill="#BE3AB3" transform="translate(100,28)"/>
<path d="M0 0 C0.99 0.33 1.98 0.66 3 1 C5.14255793 0.61067144 5.14255793 0.61067144 7 0 C6.125 5.75 6.125 5.75 5 8 C7.31 8.66 9.62 9.32 12 10 C12 10.66 12 11.32 12 12 C12.66 12.66 13.32 13.32 14 14 C-11.07526218 14.28315854 -11.07526218 14.28315854 -16 11 C-16.66 11 -17.32 11 -18 11 C-16.84826645 8.53199953 -15.95216435 6.95216435 -14 5 C-11.7578125 4.98046875 -11.7578125 4.98046875 -9.125 5.1875 C-6.46411395 5.32128359 -6.46411395 5.32128359 -4 5 C-1.32181017 2.70142894 -1.32181017 2.70142894 0 0 Z " fill="#B833C2" transform="translate(63,38)"/>
<path d="M0 0 C-1.00987348 2.67055431 -1.66827223 3.80669101 -4.171875 5.265625 C-8.9150954 7.07667279 -12.82727284 8.5444976 -18 8 C-18.66 6.68 -19.32 5.36 -20 4 C-14.68891332 -2.12817694 -7.39418877 -3.69709438 0 0 Z " fill="#B52FD2" transform="translate(44,47)"/>
<path d="M0 0 C1.65 0.33 3.3 0.66 5 1 C6.29676812 5.61073111 5.71109139 9.33840089 5 14 C3.35 14.33 1.7 14.66 0 15 C0 15.99 0 16.98 0 18 C-1.65 17.67 -3.3 17.34 -5 17 C-3.35 11.39 -1.7 5.78 0 0 Z " fill="#B25583" transform="translate(100,28)"/>
<path d="M0 0 C0.99 0 1.98 0 3 0 C2.91621094 0.83144531 2.83242187 1.66289062 2.74609375 2.51953125 C2.64425781 3.60621094 2.54242188 4.69289063 2.4375 5.8125 C2.33308594 6.89144531 2.22867188 7.97039063 2.12109375 9.08203125 C1.82422391 12.06482454 1.82422391 12.06482454 3 15 C2.34 15 1.68 15 1 15 C1 14.34 1 13.68 1 13 C-3.07964281 14.30155006 -3.07964281 14.30155006 -7 16 C-6.71253906 15.28328125 -6.42507812 14.5665625 -6.12890625 13.828125 C-5.40211316 12.00736999 -4.68035136 10.1845944 -3.96484375 8.359375 C-3.62582031 7.49828125 -3.28679687 6.6371875 -2.9375 5.75 C-2.42509766 4.44289063 -2.42509766 4.44289063 -1.90234375 3.109375 C-1 1 -1 1 0 0 Z " fill="#B3518F" transform="translate(91,29)"/>
<path d="M0 0 C0.66 0 1.32 0 2 0 C1.67 0.99 1.34 1.98 1 3 C0.34 3 -0.32 3 -1 3 C-1.33 4.32 -1.66 5.64 -2 7 C-5.96 6.67 -9.92 6.34 -14 6 C-13.34 4.68 -12.68 3.36 -12 2 C-11.30132812 2.02320313 -10.60265625 2.04640625 -9.8828125 2.0703125 C-8.51769531 2.09738281 -8.51769531 2.09738281 -7.125 2.125 C-6.22007813 2.14820313 -5.31515625 2.17140625 -4.3828125 2.1953125 C-1.81193006 2.24324836 -1.81193006 2.24324836 0 0 Z " fill="#AD39B4" transform="translate(61,41)"/>
<path d="M0 0 C0.7425 0.0825 1.485 0.165 2.25 0.25 C2.58 0.91 2.91 1.57 3.25 2.25 C-1.375 4.375 -1.375 4.375 -4.75 3.25 C-4.75 3.91 -4.75 4.57 -4.75 5.25 C-2.11 5.58 0.53 5.91 3.25 6.25 C1.25 8.25 1.25 8.25 -1.875 8.375 C-2.82375 8.33375 -3.7725 8.2925 -4.75 8.25 C-5.41 6.93 -6.07 5.61 -6.75 4.25 C-3.42692308 0.31153846 -3.42692308 0.31153846 0 0 Z " fill="#A335CB" transform="translate(30.75,46.75)"/>
<path d="M0 0 C0.99 0.33 1.98 0.66 3 1 C4.1875 3.5625 4.1875 3.5625 5 6 C3.68 6.33 2.36 6.66 1 7 C1 7.99 1 8.98 1 10 C-0.65 9.67 -2.3 9.34 -4 9 C-3.625 7.0625 -3.625 7.0625 -3 5 C-2.34 4.67 -1.68 4.34 -1 4 C-0.34786708 1.97536745 -0.34786708 1.97536745 0 0 Z " fill="#BC4A98" transform="translate(99,36)"/>
<path d="M0 0 C7.75 0.875 7.75 0.875 10 2 C9.34 3.32 8.68 4.64 8 6 C7.34 6 6.68 6 6 6 C5.34 5.01 4.68 4.02 4 3 C1.43717258 2.27034634 1.43717258 2.27034634 -1 2 C-0.67 1.34 -0.34 0.68 0 0 Z " fill="#9252A5" transform="translate(34,45)"/>
<path d="M0 0 C2.31 0.66 4.62 1.32 7 2 C6.64950425 5.24208567 6.43778819 6.61527704 3.9375 8.8125 C3.298125 9.204375 2.65875 9.59625 2 10 C2.226875 9.0925 2.45375 8.185 2.6875 7.25 C3.32605545 4.00496499 3.32605545 4.00496499 1.5625 1.625 C1.046875 1.08875 0.53125 0.5525 0 0 Z " fill="#AB4E94" transform="translate(104,43)"/>
<path d="M0 0 C0.33 0.99 0.66 1.98 1 3 C-1.97 5.475 -1.97 5.475 -5 8 C-6 6 -6 6 -5.875 4 C-5 2 -5 2 -2.4375 0.75 C-1.633125 0.5025 -0.82875 0.255 0 0 Z " fill="#B05097" transform="translate(81,33)"/>
<path d="M0 0 C0.66 0 1.32 0 2 0 C1.44894091 3.9492568 0.61064629 7.34920174 -1 11 C-1.66 11 -2.32 11 -3 11 C-3.36923077 6.44615385 -3.36923077 6.44615385 -1.5 4.1875 C-1.005 3.795625 -0.51 3.40375 0 3 C-0.66 2.67 -1.32 2.34 -2 2 C-1.34 1.34 -0.68 0.68 0 0 Z " fill="#CA2BBA" transform="translate(63,38)"/>
<path d="M0 0 C1 3 1 3 0.0625 5.1875 C-0.4634375 6.0846875 -0.4634375 6.0846875 -1 7 C-2.32 6.67 -3.64 6.34 -5 6 C-4.1875 3.5625 -4.1875 3.5625 -3 1 C-2.01 0.67 -1.02 0.34 0 0 Z " fill="#A04990" transform="translate(69,38)"/>
<path d="M0 0 C0.66 0.33 1.32 0.66 2 1 C2 2.65 2 4.3 2 6 C0.824375 6.4640625 0.824375 6.4640625 -0.375 6.9375 C-2.92330128 7.92875038 -2.92330128 7.92875038 -5 9 C-4.1875 6.5625 -4.1875 6.5625 -3 4 C-2.01 3.67 -1.02 3.34 0 3 C0 2.01 0 1.02 0 0 Z " fill="#B84798" transform="translate(89,36)"/>
<path d="M0 0 C0.33 3.3 0.66 6.6 1 10 C0.01 9.34 -0.98 8.68 -2 8 C-2.6875 4.375 -2.6875 4.375 -3 1 C-1 0 -1 0 0 0 Z " fill="#B6518E" transform="translate(104,32)"/>
<path d="M0 0 C1.1446875 0.495 1.1446875 0.495 2.3125 1 C4.99069135 2.17436686 4.99069135 2.17436686 8 2 C8 2.66 8 3.32 8 4 C6.1875 4.625 6.1875 4.625 4 5 C3.01 4.34 2.02 3.68 1 3 C0.34 3 -0.32 3 -1 3 C-0.67 2.01 -0.34 1.02 0 0 Z " fill="#C625CF" transform="translate(46,46)"/>
<path d="M0 0 C2.97 0.33 5.94 0.66 9 1 C7 3 7 3 3.875 3.125 C2.451875 3.063125 2.451875 3.063125 1 3 C0.67 2.01 0.34 1.02 0 0 Z " fill="#A02DD4" transform="translate(25,52)"/>
<path d="M0 0 C5.75 -0.125 5.75 -0.125 8 1 C8 1.66 8 2.32 8 3 C5.36 2.67 2.72 2.34 0 2 C0 1.34 0 0.68 0 0 Z " fill="#B923E2" transform="translate(26,50)"/>
<path d="M0 0 C2.97 0 5.94 0 9 0 C7.02 0.99 7.02 0.99 5 2 C4.01 1.67 3.02 1.34 2 1 C2 1.66 2 2.32 2 3 C0.68 3.33 -0.64 3.66 -2 4 C-1.34 2.68 -0.68 1.36 0 0 Z " fill="#8C618C" transform="translate(49,43)"/>
<path d="M0 0 C0.66 0 1.32 0 2 0 C1.67 1.98 1.34 3.96 1 6 C-1.31 6 -3.62 6 -6 6 C-5.38125 5.7525 -4.7625 5.505 -4.125 5.25 C-1.64931313 3.79371361 -1.04874998 2.62187494 0 0 Z " fill="#A74A9E" transform="translate(74,41)"/>
<path d="M0 0 C0.66 0.33 1.32 0.66 2 1 C2 2.65 2 4.3 2 6 C1.01 6 0.02 6 -1 6 C-0.67 4.02 -0.34 2.04 0 0 Z " fill="#9F5373" transform="translate(110,38)"/>
<path d="M0 0 C0.33 0.66 0.66 1.32 1 2 C0.34 1.67 -0.32 1.34 -1 1 C-0.67 0.67 -0.34 0.34 0 0 Z " fill="#FF00FF" transform="translate(73,36)"/>
<path d="" fill="#FF00FF" transform="translate(0,0)"/>
</svg>
